<?xml version="1.0" encoding="utf-8"?>
<!-- Generator: Adobe Illustrator 18.0.0, SVG Export Plug-In . SVG Version: 6.00 Build 0)  -->
<!DOCTYPE svg PUBLIC "-//W3C//DTD SVG 1.1//EN" "http://www.w3.org/Graphics/SVG/1.1/DTD/svg11.dtd">
<svg version="1.1" id="Layer_1" xmlns="http://www.w3.org/2000/svg" xmlns:xlink="http://www.w3.org/1999/xlink" x="0px" y="0px"
	 viewBox="0 0 64 64" enable-background="new 0 0 64 64" xml:space="preserve">
<g>
	<path fill="#231F20" d="M60.9,18.5c2.1-2.1,3.2-4.8,3.2-7.7c0-2.9-1.1-5.7-3.2-7.7c-2.1-2.1-4.8-3.2-7.7-3.2
		c-2.9,0-5.7,1.1-7.7,3.2l-0.7,0.7C42.8,2,40.3,1,37.7,1c-2.8,0-5.4,1.1-7.4,3.1L4.1,30.2c-4,4-4.1,10.4-0.3,14.5L3.5,45
		c-4.3,4.3-4.3,11.2,0,15.5c2.1,2.1,4.8,3.2,7.7,3.2c2.9,0,5.7-1.1,7.7-3.2l0.1-0.1C21,62.1,23.4,63,26,63c2.8,0,5.4-1.1,7.4-3.1
		l26.2-26.2c3.9-3.9,4.1-10.2,0.5-14.3L60.9,18.5z M6.9,33.1L33.1,6.9C34.3,5.7,35.9,5,37.7,5c1.6,0,3.1,0.6,4.3,1.6L6.6,41.9
		C4.4,39.4,4.5,35.5,6.9,33.1z M11.2,59.7c-1.9,0-3.6-0.7-4.9-2c-2.7-2.7-2.7-7.1,0-9.8l42-42c1.3-1.3,3.1-2,4.9-2
		c1.9,0,3.6,0.7,4.9,2s2,3.1,2,4.9c0,1.9-0.7,3.6-2,4.9l-42,42C14.8,59,13.1,59.7,11.2,59.7z M56.8,30.9L30.6,57.1
		C29.4,58.3,27.7,59,26,59c-1.5,0-2.9-0.5-4.1-1.5l35.3-35.3C59.3,24.8,59.1,28.6,56.8,30.9z"/>
	<path fill="#231F20" d="M54,7c-1.1,0-2,0.9-2,2c0,1.7-1.3,3-3,3c-3.9,0-7,3.1-7,7v2c0,1.7-1.3,3-3,3h-1c-3.9,0-7,3.1-7,7v2
		c0,1.7-1.3,3-3,3h-1c-4.4,0-8,3.6-8,8c0,1.7-1.3,3-3,3c-3.9,0-7,3.1-7,7c0,1.1,0.9,2,2,2s2-0.9,2-2c0-1.7,1.3-3,3-3
		c3.9,0,7-3.1,7-7c0-2.2,1.8-4,4-4h1c3.9,0,7-3.1,7-7v-2c0-1.7,1.3-3,3-3h1c3.9,0,7-3.1,7-7v-2c0-1.7,1.3-3,3-3c3.9,0,7-3.1,7-7
		C56,7.9,55.1,7,54,7z"/>
</g>
</svg>
